<svg width="152" height="20" viewBox="0 0 152 20" fill="none" xmlns="http://www.w3.org/2000/svg">
<path d="M4.94 15.22C4.02 15.22 3.2 14.9867 2.48 14.52C1.77333 14.04 1.21333 13.3867 0.8 12.56C0.386667 11.72 0.18 10.7667 0.18 9.7C0.18 8.63333 0.386667 7.68667 0.8 6.86C1.21333 6.02 1.78 5.36 2.5 4.88C3.22 4.4 4.04667 4.16 4.98 4.16C5.46 4.16 5.92 4.23333 6.36 4.38C6.8 4.52667 7.2 4.72667 7.56 4.98C7.92 5.23333 8.21333 5.52667 8.44 5.86C8.66667 6.18 8.8 6.51333 8.84 6.86L8.08 7.04V0.2H11.3V15H8.32L8.14 12.58L8.78 12.68C8.74 13.0133 8.60667 13.3333 8.38 13.64C8.16667 13.9467 7.88667 14.22 7.54 14.46C7.19333 14.6867 6.79333 14.8667 6.34 15C5.9 15.1467 5.43333 15.22 4.94 15.22ZM5.76 12.56C6.25333 12.56 6.68 12.44 7.04 12.2C7.4 11.96 7.67333 11.6267 7.86 11.2C8.06 10.7733 8.16 10.2733 8.16 9.7C8.16 9.11333 8.06 8.60667 7.86 8.18C7.67333 7.75333 7.4 7.42 7.04 7.18C6.68 6.94 6.25333 6.82 5.76 6.82C5.26667 6.82 4.84 6.94 4.48 7.18C4.13333 7.42 3.86 7.75333 3.66 8.18C3.46 8.60667 3.36 9.11333 3.36 9.7C3.36 10.2733 3.46 10.7733 3.66 11.2C3.86 11.6267 4.13333 11.96 4.48 12.2C4.84 12.44 5.26667 12.56 5.76 12.56ZM20.4659 15.2C19.2926 15.2 18.2726 14.9667 17.4059 14.5C16.5393 14.02 15.8659 13.3733 15.3859 12.56C14.9059 11.7333 14.6659 10.7933 14.6659 9.74C14.6659 8.92667 14.7993 8.18 15.0659 7.5C15.3326 6.82 15.7059 6.23333 16.1859 5.74C16.6659 5.23333 17.2326 4.84667 17.8859 4.58C18.5526 4.3 19.2793 4.16 20.0659 4.16C20.8126 4.16 21.4926 4.29333 22.1059 4.56C22.7326 4.82667 23.2726 5.2 23.7259 5.68C24.1793 6.16 24.5259 6.72667 24.7659 7.38C25.0059 8.03333 25.1126 8.74667 25.0859 9.52L25.0659 10.38H16.6059L16.1459 8.58H22.4659L22.1259 8.96V8.56C22.0993 8.22667 21.9926 7.93333 21.8059 7.68C21.6326 7.41333 21.3993 7.20667 21.1059 7.06C20.8126 6.91333 20.4793 6.84 20.1059 6.84C19.5859 6.84 19.1393 6.94667 18.7659 7.16C18.4059 7.36 18.1326 7.66 17.9459 8.06C17.7593 8.44667 17.6659 8.92667 17.6659 9.5C17.6659 10.0867 17.7859 10.6 18.0259 11.04C18.2793 11.4667 18.6393 11.8 19.1059 12.04C19.5859 12.28 20.1526 12.4 20.8059 12.4C21.2593 12.4 21.6593 12.3333 22.0059 12.2C22.3659 12.0667 22.7526 11.84 23.1659 11.52L24.6659 13.64C24.2526 14 23.8126 14.2933 23.3459 14.52C22.8793 14.7467 22.3993 14.9133 21.9059 15.02C21.4259 15.14 20.9459 15.2 20.4659 15.2ZM31.5894 15L27.1494 4.38H30.6894L33.3294 12.32L32.5494 12.4L35.2694 4.38H38.7694L34.1094 15H31.5894ZM41.4388 10.72V7.78H48.3588V10.72H41.4388ZM56.5236 15.2C55.3903 15.2 54.3969 14.9667 53.5436 14.5C52.7036 14.02 51.9369 13.2 51.2436 12.04L53.6836 10.46C53.9769 10.9267 54.2769 11.3 54.5836 11.58C54.9036 11.86 55.2303 12.0667 55.5636 12.2C55.9103 12.32 56.2703 12.38 56.6436 12.38C57.0169 12.38 57.3569 12.3 57.6636 12.14C57.9836 11.9667 58.2369 11.7267 58.4236 11.42C58.6236 11.1133 58.7236 10.7667 58.7236 10.38C58.7236 9.96667 58.6369 9.62 58.4636 9.34C58.3036 9.04667 58.0636 8.82667 57.7436 8.68C57.4369 8.53333 57.0636 8.46 56.6236 8.46C56.4236 8.46 56.2103 8.48667 55.9836 8.54C55.7569 8.58 55.5169 8.64 55.2636 8.72C55.0103 8.8 54.7503 8.90667 54.4836 9.04L53.7436 7.06L57.1436 3.36L58.0636 3.86L52.2236 3.74V0.879999H60.8236L61.4436 2.12L56.8236 7.08L56.0236 6.14C56.1303 6.08667 56.3036 6.04 56.5436 6C56.7969 5.94667 57.0369 5.92 57.2636 5.92C57.8903 5.92 58.4769 6.03333 59.0236 6.26C59.5703 6.48667 60.0569 6.8 60.4836 7.2C60.9103 7.6 61.2436 8.07333 61.4836 8.62C61.7236 9.15333 61.8436 9.72667 61.8436 10.34C61.8436 11.2733 61.6036 12.1067 61.1236 12.84C60.6569 13.56 60.0169 14.1333 59.2036 14.56C58.4036 14.9867 57.5103 15.2 56.5236 15.2ZM66.56 15.22C66.0133 15.22 65.5867 15.0667 65.28 14.76C64.9867 14.4533 64.84 14.0133 64.84 13.44C64.84 12.9067 65 12.4733 65.32 12.14C65.64 11.8067 66.0533 11.64 66.56 11.64C67.1067 11.64 67.5333 11.8 67.84 12.12C68.1467 12.4267 68.3 12.8667 68.3 13.44C68.3 13.96 68.14 14.3867 67.82 14.72C67.5 15.0533 67.08 15.22 66.56 15.22Z" fill="white"/>
<path d="M75.8767 15.18C74.9834 15.18 74.1834 14.9467 73.4767 14.48C72.7834 14 72.2301 13.3467 71.8167 12.52C71.4034 11.68 71.1967 10.7333 71.1967 9.68C71.1967 8.6 71.4034 7.64667 71.8167 6.82C72.2301 5.99333 72.7967 5.34667 73.5167 4.88C74.2367 4.4 75.0567 4.16 75.9767 4.16C76.4834 4.16 76.9434 4.23333 77.3567 4.38C77.7834 4.52667 78.1567 4.73333 78.4767 5C78.7967 5.25333 79.0701 5.55333 79.2967 5.9C79.5234 6.23333 79.6901 6.59333 79.7967 6.98L79.1367 6.9V4.38H82.3167V15H79.0767V12.44L79.7967 12.42C79.6901 12.7933 79.5167 13.1467 79.2767 13.48C79.0367 13.8133 78.7434 14.1067 78.3967 14.36C78.0501 14.6133 77.6634 14.8133 77.2367 14.96C76.8101 15.1067 76.3567 15.18 75.8767 15.18ZM76.7567 12.48C77.2501 12.48 77.6767 12.3667 78.0367 12.14C78.3967 11.9133 78.6767 11.5933 78.8767 11.18C79.0767 10.7533 79.1767 10.2533 79.1767 9.68C79.1767 9.10667 79.0767 8.61333 78.8767 8.2C78.6767 7.77333 78.3967 7.44667 78.0367 7.22C77.6767 6.98 77.2501 6.86 76.7567 6.86C76.2767 6.86 75.8567 6.98 75.4967 7.22C75.1501 7.44667 74.8767 7.77333 74.6767 8.2C74.4767 8.61333 74.3767 9.10667 74.3767 9.68C74.3767 10.2533 74.4767 10.7533 74.6767 11.18C74.8767 11.5933 75.1501 11.9133 75.4967 12.14C75.8567 12.3667 76.2767 12.48 76.7567 12.48ZM91.4003 19.6C90.5336 19.6 89.667 19.4733 88.8003 19.22C87.947 18.9667 87.2536 18.64 86.7203 18.24L87.8403 16C88.1203 16.1867 88.427 16.3467 88.7603 16.48C89.107 16.6267 89.467 16.74 89.8403 16.82C90.2136 16.9 90.5936 16.94 90.9803 16.94C91.6603 16.94 92.2136 16.84 92.6403 16.64C93.067 16.44 93.387 16.1333 93.6003 15.72C93.8136 15.32 93.9203 14.8133 93.9203 14.2V12.42L94.5403 12.52C94.447 12.96 94.2136 13.36 93.8403 13.72C93.4803 14.08 93.0336 14.3733 92.5003 14.6C91.967 14.8133 91.4003 14.92 90.8003 14.92C89.8403 14.92 88.9803 14.7 88.2203 14.26C87.4736 13.8067 86.8803 13.1867 86.4403 12.4C86.0136 11.6 85.8003 10.68 85.8003 9.64C85.8003 8.57333 86.0136 7.63333 86.4403 6.82C86.867 5.99333 87.4536 5.34667 88.2003 4.88C88.947 4.4 89.787 4.16 90.7203 4.16C91.1203 4.16 91.5003 4.20667 91.8603 4.3C92.2336 4.39333 92.5736 4.52 92.8803 4.68C93.2003 4.82667 93.4803 5.00667 93.7203 5.22C93.9736 5.42 94.1736 5.64 94.3203 5.88C94.4803 6.12 94.587 6.36667 94.6403 6.62L93.9803 6.78L94.1003 4.38H97.1403V14.14C97.1403 15.0067 97.007 15.7733 96.7403 16.44C96.487 17.12 96.107 17.6933 95.6003 18.16C95.107 18.64 94.507 19 93.8003 19.24C93.0936 19.48 92.2936 19.6 91.4003 19.6ZM91.4803 12.44C92.0003 12.44 92.447 12.3267 92.8203 12.1C93.207 11.86 93.5003 11.5333 93.7003 11.12C93.9136 10.7067 94.0203 10.22 94.0203 9.66C94.0203 9.1 93.9136 8.61333 93.7003 8.2C93.5003 7.77333 93.207 7.44667 92.8203 7.22C92.447 6.98 92.0003 6.86 91.4803 6.86C90.9736 6.86 90.5336 6.98 90.1603 7.22C89.787 7.44667 89.4936 7.77333 89.2803 8.2C89.0803 8.61333 88.9803 9.1 88.9803 9.66C88.9803 10.22 89.0803 10.7067 89.2803 11.12C89.4936 11.5333 89.787 11.86 90.1603 12.1C90.5336 12.3267 90.9736 12.44 91.4803 12.44ZM106.379 15.2C105.206 15.2 104.186 14.9667 103.319 14.5C102.453 14.02 101.779 13.3733 101.299 12.56C100.819 11.7333 100.579 10.7933 100.579 9.74C100.579 8.92667 100.713 8.18 100.979 7.5C101.246 6.82 101.619 6.23333 102.099 5.74C102.579 5.23333 103.146 4.84667 103.799 4.58C104.466 4.3 105.193 4.16 105.979 4.16C106.726 4.16 107.406 4.29333 108.019 4.56C108.646 4.82667 109.186 5.2 109.639 5.68C110.093 6.16 110.439 6.72667 110.679 7.38C110.919 8.03333 111.026 8.74667 110.999 9.52L110.979 10.38H102.519L102.059 8.58H108.379L108.039 8.96V8.56C108.013 8.22667 107.906 7.93333 107.719 7.68C107.546 7.41333 107.313 7.20667 107.019 7.06C106.726 6.91333 106.393 6.84 106.019 6.84C105.499 6.84 105.053 6.94667 104.679 7.16C104.319 7.36 104.046 7.66 103.859 8.06C103.673 8.44667 103.579 8.92667 103.579 9.5C103.579 10.0867 103.699 10.6 103.939 11.04C104.193 11.4667 104.553 11.8 105.019 12.04C105.499 12.28 106.066 12.4 106.719 12.4C107.173 12.4 107.573 12.3333 107.919 12.2C108.279 12.0667 108.666 11.84 109.079 11.52L110.579 13.64C110.166 14 109.726 14.2933 109.259 14.52C108.793 14.7467 108.313 14.9133 107.819 15.02C107.339 15.14 106.859 15.2 106.379 15.2ZM114.438 15V4.38H117.478L117.578 6.54L116.938 6.78C117.085 6.3 117.345 5.86667 117.718 5.48C118.105 5.08 118.565 4.76 119.098 4.52C119.631 4.28 120.191 4.16 120.778 4.16C121.578 4.16 122.251 4.32667 122.798 4.66C123.345 4.98 123.758 5.46667 124.038 6.12C124.318 6.76 124.458 7.54667 124.458 8.48V15H121.238V8.74C121.238 8.31333 121.178 7.96 121.058 7.68C120.938 7.4 120.751 7.19333 120.498 7.06C120.258 6.91333 119.958 6.84667 119.598 6.86C119.318 6.86 119.058 6.90667 118.818 7C118.578 7.08 118.371 7.20667 118.198 7.38C118.025 7.54 117.885 7.72667 117.778 7.94C117.685 8.15333 117.638 8.38667 117.638 8.64V15H116.058C115.685 15 115.365 15 115.098 15C114.831 15 114.611 15 114.438 15ZM133.193 15.2C132.167 15.2 131.247 14.96 130.433 14.48C129.62 14 128.973 13.3467 128.493 12.52C128.027 11.68 127.793 10.7333 127.793 9.68C127.793 8.62667 128.027 7.68667 128.493 6.86C128.973 6.02 129.62 5.36 130.433 4.88C131.247 4.4 132.167 4.16 133.193 4.16C134.14 4.16 135.007 4.32667 135.793 4.66C136.593 4.99333 137.227 5.46 137.693 6.06L135.953 8.14C135.767 7.92667 135.547 7.72667 135.293 7.54C135.04 7.35333 134.76 7.20667 134.453 7.1C134.147 6.99333 133.827 6.94 133.493 6.94C132.987 6.94 132.54 7.06 132.153 7.3C131.767 7.52667 131.467 7.84667 131.253 8.26C131.04 8.67333 130.933 9.14667 130.933 9.68C130.933 10.1867 131.04 10.6467 131.253 11.06C131.48 11.4733 131.787 11.8 132.173 12.04C132.56 12.28 133 12.4 133.493 12.4C133.84 12.4 134.16 12.36 134.453 12.28C134.747 12.1867 135.013 12.0533 135.253 11.88C135.507 11.7067 135.74 11.4933 135.953 11.24L137.673 13.34C137.22 13.9133 136.587 14.3667 135.773 14.7C134.973 15.0333 134.113 15.2 133.193 15.2ZM141.879 19.6L144.299 13.9L144.339 15.54L139.219 4.38H142.839L145.079 9.72C145.199 9.98667 145.312 10.2733 145.419 10.58C145.525 10.8867 145.605 11.18 145.659 11.46L145.219 11.72C145.299 11.52 145.385 11.2733 145.479 10.98C145.585 10.6733 145.699 10.3467 145.819 10L147.779 4.38H151.419L146.899 15L145.059 19.6H141.879Z" fill="#F34B4B"/>
</svg>
