<svg width="183" height="24" viewBox="0 0 183 24" fill="none" xmlns="http://www.w3.org/2000/svg">
<path d="M6.528 18.264C5.424 18.264 4.44 17.984 3.576 17.424C2.728 16.848 2.056 16.064 1.56 15.072C1.064 14.064 0.816 12.92 0.816 11.64C0.816 10.36 1.064 9.224 1.56 8.232C2.056 7.224 2.736 6.432 3.6 5.856C4.464 5.28 5.456 4.992 6.576 4.992C7.152 4.992 7.704 5.08 8.232 5.256C8.76 5.432 9.24 5.672 9.672 5.976C10.104 6.28 10.456 6.632 10.728 7.032C11 7.416 11.16 7.816 11.208 8.232L10.296 8.448V0.24H14.16V18H10.584L10.368 15.096L11.136 15.216C11.088 15.616 10.928 16 10.656 16.368C10.4 16.736 10.064 17.064 9.648 17.352C9.232 17.624 8.752 17.84 8.208 18C7.68 18.176 7.12 18.264 6.528 18.264ZM7.512 15.072C8.104 15.072 8.616 14.928 9.048 14.64C9.48 14.352 9.808 13.952 10.032 13.44C10.272 12.928 10.392 12.328 10.392 11.64C10.392 10.936 10.272 10.328 10.032 9.816C9.808 9.304 9.48 8.904 9.048 8.616C8.616 8.328 8.104 8.184 7.512 8.184C6.92 8.184 6.408 8.328 5.976 8.616C5.56 8.904 5.232 9.304 4.992 9.816C4.752 10.328 4.632 10.936 4.632 11.64C4.632 12.328 4.752 12.928 4.992 13.44C5.232 13.952 5.56 14.352 5.976 14.64C6.408 14.928 6.92 15.072 7.512 15.072ZM25.1591 18.24C23.7511 18.24 22.5271 17.96 21.4871 17.4C20.4471 16.824 19.6391 16.048 19.0631 15.072C18.4871 14.08 18.1991 12.952 18.1991 11.688C18.1991 10.712 18.3591 9.816 18.6791 9C18.9991 8.184 19.4471 7.48 20.0231 6.888C20.5991 6.28 21.2791 5.816 22.0631 5.496C22.8631 5.16 23.7351 4.992 24.6791 4.992C25.5751 4.992 26.3911 5.152 27.1271 5.472C27.8791 5.792 28.5271 6.24 29.0711 6.816C29.6151 7.392 30.0311 8.072 30.3191 8.856C30.6071 9.64 30.7351 10.496 30.7031 11.424L30.6791 12.456H20.5271L19.9751 10.296H27.5591L27.1511 10.752V10.272C27.1191 9.872 26.9911 9.52 26.7671 9.216C26.5591 8.896 26.2791 8.648 25.9271 8.472C25.5751 8.296 25.1751 8.208 24.7271 8.208C24.1031 8.208 23.5671 8.336 23.1191 8.592C22.6871 8.832 22.3591 9.192 22.1351 9.672C21.9111 10.136 21.7991 10.712 21.7991 11.4C21.7991 12.104 21.9431 12.72 22.2311 13.248C22.5351 13.76 22.9671 14.16 23.5271 14.448C24.1031 14.736 24.7831 14.88 25.5671 14.88C26.1111 14.88 26.5911 14.8 27.0071 14.64C27.4391 14.48 27.9031 14.208 28.3991 13.824L30.1991 16.368C29.7031 16.8 29.1751 17.152 28.6151 17.424C28.0551 17.696 27.4791 17.896 26.8871 18.024C26.3111 18.168 25.7351 18.24 25.1591 18.24ZM38.5073 18L33.1793 5.256H37.4273L40.5953 14.784L39.6593 14.88L42.9233 5.256H47.1233L41.5313 18H38.5073ZM50.3265 12.864V9.336H58.6305V12.864H50.3265ZM68.4283 18.24C67.0683 18.24 65.8763 17.96 64.8523 17.4C63.8443 16.824 62.9243 15.84 62.0923 14.448L65.0203 12.552C65.3723 13.112 65.7323 13.56 66.1003 13.896C66.4843 14.232 66.8763 14.48 67.2763 14.64C67.6923 14.784 68.1243 14.856 68.5723 14.856C69.0203 14.856 69.4283 14.76 69.7963 14.568C70.1803 14.36 70.4843 14.072 70.7083 13.704C70.9483 13.336 71.0683 12.92 71.0683 12.456C71.0683 11.96 70.9643 11.544 70.7563 11.208C70.5643 10.856 70.2763 10.592 69.8923 10.416C69.5243 10.24 69.0763 10.152 68.5483 10.152C68.3083 10.152 68.0523 10.184 67.7803 10.248C67.5083 10.296 67.2203 10.368 66.9163 10.464C66.6123 10.56 66.3003 10.688 65.9803 10.848L65.0923 8.472L69.1723 4.032L70.2763 4.632L63.2683 4.488V1.056H73.5883L74.3323 2.544L68.7883 8.496L67.8283 7.368C67.9563 7.304 68.1643 7.248 68.4523 7.2C68.7563 7.136 69.0443 7.104 69.3163 7.104C70.0683 7.104 70.7723 7.24 71.4283 7.512C72.0843 7.784 72.6683 8.16 73.1803 8.64C73.6923 9.12 74.0923 9.688 74.3803 10.344C74.6683 10.984 74.8123 11.672 74.8123 12.408C74.8123 13.528 74.5243 14.528 73.9483 15.408C73.3883 16.272 72.6203 16.96 71.6443 17.472C70.6843 17.984 69.6123 18.24 68.4283 18.24ZM80.472 18.264C79.816 18.264 79.304 18.08 78.936 17.712C78.584 17.344 78.408 16.816 78.408 16.128C78.408 15.488 78.6 14.968 78.984 14.568C79.368 14.168 79.864 13.968 80.472 13.968C81.128 13.968 81.64 14.16 82.008 14.544C82.376 14.912 82.56 15.44 82.56 16.128C82.56 16.752 82.368 17.264 81.984 17.664C81.6 18.064 81.096 18.264 80.472 18.264Z" fill="black"/>
<path d="M91.6521 18.216C90.5801 18.216 89.6201 17.936 88.7721 17.376C87.9401 16.8 87.2761 16.016 86.7801 15.024C86.2841 14.016 86.0361 12.88 86.0361 11.616C86.0361 10.32 86.2841 9.176 86.7801 8.184C87.2761 7.192 87.9561 6.416 88.8201 5.856C89.6841 5.28 90.6681 4.992 91.7721 4.992C92.3801 4.992 92.9321 5.08 93.4281 5.256C93.9401 5.432 94.3881 5.68 94.7721 6C95.1561 6.304 95.4841 6.664 95.7561 7.08C96.0281 7.48 96.2281 7.912 96.3561 8.376L95.5641 8.28V5.256H99.3801V18H95.4921V14.928L96.3561 14.904C96.2281 15.352 96.0201 15.776 95.7321 16.176C95.4441 16.576 95.0921 16.928 94.6761 17.232C94.2601 17.536 93.7961 17.776 93.2841 17.952C92.7721 18.128 92.2281 18.216 91.6521 18.216ZM92.7081 14.976C93.3001 14.976 93.8121 14.84 94.2441 14.568C94.6761 14.296 95.0121 13.912 95.2521 13.416C95.4921 12.904 95.6121 12.304 95.6121 11.616C95.6121 10.928 95.4921 10.336 95.2521 9.84C95.0121 9.328 94.6761 8.936 94.2441 8.664C93.8121 8.376 93.3001 8.232 92.7081 8.232C92.1321 8.232 91.6281 8.376 91.1961 8.664C90.7801 8.936 90.4521 9.328 90.2121 9.84C89.9721 10.336 89.8521 10.928 89.8521 11.616C89.8521 12.304 89.9721 12.904 90.2121 13.416C90.4521 13.912 90.7801 14.296 91.1961 14.568C91.6281 14.84 92.1321 14.976 92.7081 14.976ZM110.28 23.52C109.24 23.52 108.2 23.368 107.16 23.064C106.136 22.76 105.304 22.368 104.664 21.888L106.008 19.2C106.344 19.424 106.712 19.616 107.112 19.776C107.528 19.952 107.96 20.088 108.408 20.184C108.856 20.28 109.312 20.328 109.776 20.328C110.592 20.328 111.256 20.208 111.768 19.968C112.28 19.728 112.664 19.36 112.92 18.864C113.176 18.384 113.304 17.776 113.304 17.04V14.904L114.048 15.024C113.936 15.552 113.656 16.032 113.208 16.464C112.776 16.896 112.24 17.248 111.6 17.52C110.96 17.776 110.28 17.904 109.56 17.904C108.408 17.904 107.376 17.64 106.464 17.112C105.568 16.568 104.856 15.824 104.328 14.88C103.816 13.92 103.56 12.816 103.56 11.568C103.56 10.288 103.816 9.16 104.328 8.184C104.84 7.192 105.544 6.416 106.44 5.856C107.336 5.28 108.344 4.992 109.464 4.992C109.944 4.992 110.4 5.048 110.832 5.16C111.28 5.272 111.688 5.424 112.056 5.616C112.44 5.792 112.776 6.008 113.064 6.264C113.368 6.504 113.608 6.768 113.784 7.056C113.976 7.344 114.104 7.64 114.168 7.944L113.376 8.136L113.52 5.256H117.168V16.968C117.168 18.008 117.008 18.928 116.688 19.728C116.384 20.544 115.928 21.232 115.32 21.792C114.728 22.368 114.008 22.8 113.16 23.088C112.312 23.376 111.352 23.52 110.28 23.52ZM110.376 14.928C111 14.928 111.536 14.792 111.984 14.52C112.448 14.232 112.8 13.84 113.04 13.344C113.296 12.848 113.424 12.264 113.424 11.592C113.424 10.92 113.296 10.336 113.04 9.84C112.8 9.328 112.448 8.936 111.984 8.664C111.536 8.376 111 8.232 110.376 8.232C109.768 8.232 109.24 8.376 108.792 8.664C108.344 8.936 107.992 9.328 107.736 9.84C107.496 10.336 107.376 10.92 107.376 11.592C107.376 12.264 107.496 12.848 107.736 13.344C107.992 13.84 108.344 14.232 108.792 14.52C109.24 14.792 109.768 14.928 110.376 14.928ZM128.255 18.24C126.847 18.24 125.623 17.96 124.583 17.4C123.543 16.824 122.735 16.048 122.159 15.072C121.583 14.08 121.295 12.952 121.295 11.688C121.295 10.712 121.455 9.816 121.775 9C122.095 8.184 122.543 7.48 123.119 6.888C123.695 6.28 124.375 5.816 125.159 5.496C125.959 5.16 126.831 4.992 127.775 4.992C128.671 4.992 129.487 5.152 130.223 5.472C130.975 5.792 131.623 6.24 132.167 6.816C132.711 7.392 133.127 8.072 133.415 8.856C133.703 9.64 133.831 10.496 133.799 11.424L133.775 12.456H123.623L123.071 10.296H130.655L130.247 10.752V10.272C130.215 9.872 130.087 9.52 129.863 9.216C129.655 8.896 129.375 8.648 129.023 8.472C128.671 8.296 128.271 8.208 127.823 8.208C127.199 8.208 126.663 8.336 126.215 8.592C125.783 8.832 125.455 9.192 125.231 9.672C125.007 10.136 124.895 10.712 124.895 11.4C124.895 12.104 125.039 12.72 125.327 13.248C125.631 13.76 126.063 14.16 126.623 14.448C127.199 14.736 127.879 14.88 128.663 14.88C129.207 14.88 129.687 14.8 130.103 14.64C130.535 14.48 130.999 14.208 131.495 13.824L133.295 16.368C132.799 16.8 132.271 17.152 131.711 17.424C131.151 17.696 130.575 17.896 129.983 18.024C129.407 18.168 128.831 18.24 128.255 18.24ZM137.926 18V5.256H141.574L141.694 7.848L140.926 8.136C141.102 7.56 141.414 7.04 141.862 6.576C142.326 6.096 142.878 5.712 143.518 5.424C144.158 5.136 144.83 4.992 145.534 4.992C146.494 4.992 147.302 5.192 147.958 5.592C148.614 5.976 149.11 6.56 149.446 7.344C149.782 8.112 149.95 9.056 149.95 10.176V18H146.086V10.488C146.086 9.976 146.014 9.552 145.87 9.216C145.726 8.88 145.502 8.632 145.198 8.472C144.91 8.296 144.55 8.216 144.118 8.232C143.782 8.232 143.47 8.288 143.182 8.4C142.894 8.496 142.646 8.648 142.438 8.856C142.23 9.048 142.062 9.272 141.934 9.528C141.822 9.784 141.766 10.064 141.766 10.368V18H139.87C139.422 18 139.038 18 138.718 18C138.398 18 138.134 18 137.926 18ZM160.432 18.24C159.2 18.24 158.096 17.952 157.12 17.376C156.144 16.8 155.368 16.016 154.792 15.024C154.232 14.016 153.952 12.88 153.952 11.616C153.952 10.352 154.232 9.224 154.792 8.232C155.368 7.224 156.144 6.432 157.12 5.856C158.096 5.28 159.2 4.992 160.432 4.992C161.568 4.992 162.608 5.192 163.552 5.592C164.512 5.992 165.272 6.552 165.832 7.272L163.744 9.768C163.52 9.512 163.256 9.272 162.952 9.048C162.648 8.824 162.312 8.648 161.944 8.52C161.576 8.392 161.192 8.328 160.792 8.328C160.184 8.328 159.648 8.472 159.184 8.76C158.72 9.032 158.36 9.416 158.104 9.912C157.848 10.408 157.72 10.976 157.72 11.616C157.72 12.224 157.848 12.776 158.104 13.272C158.376 13.768 158.744 14.16 159.208 14.448C159.672 14.736 160.2 14.88 160.792 14.88C161.208 14.88 161.592 14.832 161.944 14.736C162.296 14.624 162.616 14.464 162.904 14.256C163.208 14.048 163.488 13.792 163.744 13.488L165.808 16.008C165.264 16.696 164.504 17.24 163.528 17.64C162.568 18.04 161.536 18.24 160.432 18.24ZM170.854 23.52L173.758 16.68L173.806 18.648L167.662 5.256H172.006L174.694 11.664C174.838 11.984 174.974 12.328 175.102 12.696C175.23 13.064 175.326 13.416 175.39 13.752L174.862 14.064C174.958 13.824 175.062 13.528 175.174 13.176C175.302 12.808 175.438 12.416 175.582 12L177.934 5.256H182.302L176.878 18L174.67 23.52H170.854Z" fill="#F34B4B"/>
</svg>
